<svg xmlns="http://www.w3.org/2000/svg" width="45.906" height="307.469" viewBox="0 0 45.906 307.469">
  <defs>
    <style>
      .cls-1 {
        fill: #ec595c;
        fill-rule: evenodd;
      }
    </style>
  </defs>
  <path id="catch.svg" class="cls-1" d="M41.171,2.784A0.967,0.967,0,1,0,41.513.912,19.115,19.115,0,0,0,35.77.858C34.167,1.092,34.4,3,35.824,2.73A13.689,13.689,0,0,1,41.171,2.784Zm1.764,8.769c1.459-.45,1.026-2.395-0.468-1.981-2.719.774-5.636,0.9-7.166-.666a0.949,0.949,0,0,0-1.494,1.17C35.049,11.823,39.371,12.669,42.936,11.553ZM39.461,25.665a4.669,4.669,0,0,1,2.233.72,3.886,3.886,0,0,1,.99,5.51,5.578,5.578,0,0,1-3.349,2.017c-1.548.36-.99,2.179,0.594,1.765a7.527,7.527,0,0,0,4.393-2.971,5.329,5.329,0,0,0-1.675-7.562,7.523,7.523,0,0,0-7.778.414c-2.413,1.675-3.619,5.024-2.485,7.256,0.792,1.548,2.3,2.251,3.691.972a14.182,14.182,0,0,0,3.637-7.292A0.9,0.9,0,0,0,39.461,25.665Zm-1.422.09a1.272,1.272,0,0,0-.162.558,10.817,10.817,0,0,1-2.791,6c-0.45.4-.918,0.126-1.188-0.4-0.756-1.386.144-3.781,1.819-5.078A5.966,5.966,0,0,1,38.038,25.755Zm7.13,26.809a1.02,1.02,0,0,0,.936-1.008,0.95,0.95,0,0,0-.306-0.684,7.663,7.663,0,0,0-3.367-1.819,0.92,0.92,0,0,0-.882.882,0.617,0.617,0,0,0,.414.576,7.723,7.723,0,0,1,2.593,1.765A0.878,0.878,0,0,0,45.168,52.564Zm0.144-4.411A0.765,0.765,0,0,0,46.1,47.36a0.774,0.774,0,0,0-.81-0.81H39.569v-1.1a0.941,0.941,0,0,0-1.873,0v1.1h-5.78a0.807,0.807,0,0,0-.846.828,0.761,0.761,0,0,0,.828.774h0.018l4.447-.054c0,0.144.018,0.288,0.018,0.414A4.342,4.342,0,0,1,33.7,52.924a0.822,0.822,0,0,0-.522.72,0.879,0.879,0,0,0,.9.828,1.179,1.179,0,0,0,.594-0.18,6.357,6.357,0,0,0,3.295-5.942V48.1h1.495l0.018,3.1a0.628,0.628,0,0,1-.666.738,1.81,1.81,0,0,1-.45-0.072,0.739,0.739,0,0,0-.2-0.018,0.708,0.708,0,0,0-.648.792c0,0.846.846,0.918,1.458,0.918a1.951,1.951,0,0,0,2.089-2.107V51.412l-0.054-2.575V48.1l4.285,0.054h0.018Zm0.414,11.073a0.956,0.956,0,0,0,.9-0.972c0-1.116-2.557-2.989-3.187-2.989a0.922,0.922,0,0,0-.918.81,0.626,0.626,0,0,0,.324.5,6.411,6.411,0,0,1,2.089,2.143A0.914,0.914,0,0,0,45.727,59.226Zm-5.564-2.395a0.943,0.943,0,0,0,.864-0.936c0-1.062-2.575-2.053-2.971-2.053a0.739,0.739,0,0,0-.792.7,0.817,0.817,0,0,0,.558.72,5.875,5.875,0,0,1,1.764,1.278A0.777,0.777,0,0,0,40.163,56.831Zm-4.934-6.572a0.841,0.841,0,0,0,.234-0.558,0.87,0.87,0,0,0-.864-0.828,0.788,0.788,0,0,0-.594.27A7.159,7.159,0,0,1,31.466,51a0.781,0.781,0,0,0-.522.7,0.884,0.884,0,0,0,.918.828C32.637,52.528,34.275,51.268,35.229,50.259Zm7.634,7.454a0.856,0.856,0,0,0-.972-0.864,0.774,0.774,0,0,0-.846.774c0,1.008-.684,1.26-2.359,1.26-1.747,0-1.783-.27-1.783-1.17,0-.594.054-1.44,0.09-2.071V55.607a0.744,0.744,0,0,0-.828-0.684,0.776,0.776,0,0,0-.864.684c-0.036.846-.072,2.017-0.072,2.791v0.054c0,1.819,1.332,1.963,3.367,1.963C40.235,60.414,42.864,60.36,42.864,57.713ZM31.628,59.838c1.35,0,2.863-2.683,2.863-3.385a0.857,0.857,0,0,0-.882-0.81,0.788,0.788,0,0,0-.774.594A4.633,4.633,0,0,1,31.2,58.182a0.967,0.967,0,0,0-.54.792A0.928,0.928,0,0,0,31.628,59.838ZM43.26,81.846a8.288,8.288,0,0,1,1.116.936c0.9,0.954,2.179-.612,1.152-1.548a8.6,8.6,0,0,0-2.035-1.314c-0.018-.576-0.09-1.17-0.108-1.62-0.036-.882-0.09-2.287-0.108-3.691,0.432-.09.864-0.2,1.3-0.306a0.871,0.871,0,1,0-.4-1.656c-0.288.09-.612,0.162-0.918,0.252,0-.882.018-1.638,0.054-2.143a0.867,0.867,0,0,0-1.729.036c-0.018.558,0,1.477,0.018,2.485a7.562,7.562,0,0,1-2.539.054,0.881,0.881,0,1,0-.36,1.71,12.375,12.375,0,0,0,2.953-.126c0.054,1.422.09,2.809,0.144,3.547,0.018,0.342.054,0.612,0.054,0.9a5.119,5.119,0,0,0-3.169.216,2.038,2.038,0,0,0-.27,3.781A3.576,3.576,0,0,0,43.26,81.846ZM34.4,83.592c0.45-.432.216-0.936,0.36-1.44,0.072-.288.18-0.684,0.324-1.134a11.006,11.006,0,0,1,.558-1.422c0.648-1.35-.72-1.963-1.134-1.1-0.036.09-.162,0.414-0.216,0.522-0.18.36-.2,0.306-0.234-0.018a20.041,20.041,0,0,1,.342-3.763c0.234-1.531.54-3.1,0.666-3.907a0.912,0.912,0,1,0-1.819-.036c-0.09,1.17-.486,3.187-0.72,5.366a16.288,16.288,0,0,0,.288,6.32A0.952,0.952,0,0,0,34.4,83.592ZM41.711,81a1.869,1.869,0,0,1-2.611.954,0.6,0.6,0,0,1,.108-1.062A3.25,3.25,0,0,1,41.693,81h0.018ZM15.367,56.075a0.707,0.707,0,0,0,.738-0.738,0.7,0.7,0,0,0-.738-0.738h-2V52.24H15.8a0.729,0.729,0,1,0,0-1.459H13.368V48.53H14.43a0.729,0.729,0,1,0,0-1.459H5.265a4.032,4.032,0,0,0,.846-1.566,0.926,0.926,0,0,0-.936-0.846,0.71,0.71,0,0,0-.648.414,11.374,11.374,0,0,1-2.935,3.817,0.8,0.8,0,0,0-.324.612,0.874,0.874,0,0,0,.9.792c0.378,0,.756-0.234,1.8-1.476v1.962H1.484a0.748,0.748,0,0,0-.756.756,0.686,0.686,0,0,0,.756.7H3.969V54.6H1.844a0.756,0.756,0,0,0-.774.774,0.7,0.7,0,0,0,.774.7H15.367Zm0.594,3.511c0-.936-2.053-2.773-2.809-2.773a0.869,0.869,0,0,0-.918.684,0.561,0.561,0,0,0,.252.45,6.5,6.5,0,0,1,1.71,2.089,0.834,0.834,0,0,0,.774.5A0.991,0.991,0,0,0,15.961,59.586Zm-4.123.162c0-.414-0.81-2.935-1.963-2.935a0.719,0.719,0,0,0-.792.63,0.685,0.685,0,0,0,.108.342,5.975,5.975,0,0,1,.882,2.179,0.791,0.791,0,0,0,.81.7A0.939,0.939,0,0,0,11.837,59.748ZM8.164,59.73a5.348,5.348,0,0,0-.648-2.575,0.881,0.881,0,0,0-.738-0.342,0.667,0.667,0,0,0-.756.576,0.707,0.707,0,0,0,.054.252,5.9,5.9,0,0,1,.342,2.053v0.2a0.756,0.756,0,0,0,.774.81A0.955,0.955,0,0,0,8.164,59.73ZM2.349,60.792c1.206,0,2.719-2.269,2.719-3.223a0.826,0.826,0,0,0-.882-0.756,0.778,0.778,0,0,0-.792.612A3.872,3.872,0,0,1,1.9,59.244a0.929,0.929,0,0,0-.5.756A0.88,0.88,0,0,0,2.349,60.792Zm9.543-10.011H10.6V48.53h1.3v2.251Zm-2.611,0H8V48.53H9.281v2.251ZM11.891,54.6H10.6V52.24h1.3V54.6ZM6.67,50.781H5.427V48.53H6.67v2.251ZM9.281,54.6H8V52.24H9.281V54.6Zm-2.611,0H5.427V52.24H6.67V54.6ZM8.632,70.922a6.005,6.005,0,0,0,.558-1.675,0.946,0.946,0,0,0-1.062-.792,0.806,0.806,0,0,0-.9.576A13.8,13.8,0,0,1,6.76,70.94c-1.909,0-3.547.018-3.637,2.2-0.036,1.188-.054,2.773-0.054,4.339,0,1.548.018,3.079,0.054,4.159C3.195,84.066,4.653,84.1,8.957,84.1c0.882,0,1.765-.018,2.467-0.054,1.747-.072,2.7-0.774,2.755-2.449,0.018-.9.036-2.359,0.036-3.853,0-1.747-.018-3.565-0.054-4.717a2.133,2.133,0,0,0-2.2-2.053C11.261,70.922,9.929,70.922,8.632,70.922ZM4.725,74.757c0-1.675.054-2.2,1.332-2.269,0.576-.036,1.6-0.054,2.665-0.054,3.313,0,3.709,0,3.763,1.224,0.018,0.306.036,0.684,0.036,1.1h-7.8Zm7.814,3.709H4.707V76.288H12.54v2.179ZM12.522,80c0,1.675,0,2.377-1.386,2.449-0.594.036-1.494,0.054-2.377,0.054-3.529,0-3.961-.036-4-1.224C4.743,80.933,4.725,80.483,4.725,80h7.8ZM9.029,95.132a0.905,0.905,0,0,0,.648-0.81c0-.378-0.972-2.089-1.8-2.089a0.8,0.8,0,0,0-.846.684,0.557,0.557,0,0,0,.144.378,5.057,5.057,0,0,1,.99,1.477,0.568,0.568,0,0,0,.342.36c-0.828,0-1.638.018-2.449,0.018a0.947,0.947,0,0,0,.324-0.666A3.067,3.067,0,0,0,4.4,92.612a0.874,0.874,0,0,0-.9.738,0.589,0.589,0,0,0,.234.45,4.9,4.9,0,0,1,1.188,1.242,0.476,0.476,0,0,0,.09.108c-0.54,0-1.08.018-1.584,0.018a1.828,1.828,0,0,0-2.017,1.656c0,0.27-.018.558-0.018,0.846,0,0.27.018,0.54,0.018,0.756a0.8,0.8,0,0,0,.864.774,0.814,0.814,0,0,0,.882-0.756V97.437c0.036-.612.18-0.846,1.116-0.864,1.062-.018,2.395-0.036,3.781-0.036,1.693,0,3.439.018,4.807,0.036,1.044,0.018,1.062.108,1.062,1.819v0.036a0.771,0.771,0,0,0,.864.72c0.972,0,.972-0.72.972-1.368,0-.306,0-0.63-0.018-0.882a1.984,1.984,0,0,0-1.963-1.728c-0.45,0-.918-0.018-1.4-0.018a5.018,5.018,0,0,0,1.116-1.873,0.936,0.936,0,0,0-.972-0.846,0.766,0.766,0,0,0-.756.54,9.856,9.856,0,0,1-1.116,2.161H9.029Zm2.107,9.957a1.677,1.677,0,0,0,1.765-1.566c0.036-.738.036-1.567,0.036-2.377s0-1.6-.036-2.269a1.582,1.582,0,0,0-1.728-1.35c-0.954-.036-1.945-0.036-2.917-0.036-0.792,0-1.584,0-2.323.018a1.559,1.559,0,0,0-1.819,1.476c-0.018.63-.036,1.386-0.036,2.178s0.018,1.621.036,2.359a1.672,1.672,0,0,0,1.855,1.548H6.454a1.979,1.979,0,0,0-.288.27c-0.756.937-2.287,1.369-4.519,1.459a0.764,0.764,0,0,0-.81.774,0.875,0.875,0,0,0,.9.882c3.493,0,6.1-1.818,6.1-2.718a0.83,0.83,0,0,0-.342-0.631H8.993v1.207c0,1.71,1.566,1.908,3.475,1.908,1.53,0,3.925-.108,3.925-2.989a0.87,0.87,0,0,0-.972-0.864,0.755,0.755,0,0,0-.828.756c0,1.441-.9,1.639-2.071,1.639-0.81,0-1.782-.018-1.819-0.738,0-.252,0-0.595.018-0.937h0.414Zm0.234-5.383-5.78-.018,0.018-.252a0.7,0.7,0,0,1,.792-0.7c0.468-.018,1.008-0.018,1.566-0.018,0.882,0,1.837.018,2.629,0.036a0.656,0.656,0,0,1,.756.684Zm0.036,2.034-5.834-.018V100.8h5.834v0.936Zm-0.036,1.117c0,0.108-.018.2-0.018,0.288-0.054.738-.414,0.738-2.539,0.738-2.827,0-3.187,0-3.2-.738l-0.018-.306Zm2.053,19.079a0.881,0.881,0,1,0,.306-1.729,10.858,10.858,0,0,0-4.735.109,0.848,0.848,0,1,0,.252,1.674A9.124,9.124,0,0,1,13.422,121.936Zm0.972,8.21c1.188-.306,1.1-2.214-0.36-1.908-1.4.288-3.565,0.576-4.537-.306a0.891,0.891,0,0,0-1.278,1.242C9.515,130.579,12.468,130.633,14.394,130.146Zm-9.525.865a2.134,2.134,0,0,0,.342-1.441,9.074,9.074,0,0,1,1.062-2.52,0.722,0.722,0,0,0-1.26-.7c-0.072.126-.27,0.486-0.306,0.576-0.072.163-.144,0.217-0.2-0.018-0.432-1.674.648-5.905,0.936-7.364a0.875,0.875,0,1,0-1.747-.108c-0.324,2.143-1.747,7.472-.306,11.02C3.753,131.335,4.419,131.407,4.869,131.011Zm10.425,12.236a0.793,0.793,0,1,0,0-1.585l-5.726.036v-1.1a0.866,0.866,0,0,0-.936-0.846,0.866,0.866,0,0,0-.936.846v1.1l-5.636-.036a0.793,0.793,0,1,0,0,1.585l3.8-.018a14.727,14.727,0,0,1-.612,1.62c-0.756.036-1.53,0.054-2.269,0.054a0.718,0.718,0,0,0-.774.738,0.834,0.834,0,0,0,.9.829,80.689,80.689,0,0,0,9.651-1.009,5.626,5.626,0,0,1,.774.828,0.926,0.926,0,0,0,.72.415,0.863,0.863,0,0,0,.828-0.883c0-.936-1.945-2.142-3.043-2.592Zm-1.854,8.228c-0.018-.72,0-2.287-0.036-3.115-0.036-.81-0.54-1.476-1.981-1.53-0.738-.018-1.584-0.036-2.449-0.036-1.044,0-2.107.018-2.953,0.036-1.44.036-1.963,0.846-2,1.548-0.018.306-.108,6.59-0.108,6.77a0.759,0.759,0,0,0,.81.792,0.833,0.833,0,0,0,.882-0.81v-2.521h6.176c0,0.18-.018.342-0.018,0.486a1.039,1.039,0,0,1-1.224,1.1,6.049,6.049,0,0,1-1.1-.126A0.448,0.448,0,0,0,9.3,154.05a0.724,0.724,0,0,0-.7.792c0,0.81.684,0.954,1.909,0.954,2.359,0,2.971-1.35,2.971-2.412v-0.036Zm-2.395-8.264a0.688,0.688,0,0,0-.342.576,0.578,0.578,0,0,0,.36.5,1.583,1.583,0,0,0,.18.108c-1.35.144-2.755,0.27-4.2,0.36a15.487,15.487,0,0,0,.72-1.548h3.277Zm0.738,5.905H5.662v-0.27c0.036-.72.252-0.72,3.187-0.72,2.611,0,2.9.018,2.917,0.72Zm0.018,2.251H5.608c0-.342.018-0.684,0.018-1.008H11.8v1.008ZM8.542,168.723c0.018,0.7.054,1.4,0.09,2.088a7.675,7.675,0,0,1-2.809.162,0.9,0.9,0,1,0-.378,1.729,9.793,9.793,0,0,0,3.277-.2c0.036,0.558.072,1.062,0.108,1.494,0.036,0.414.072,0.793,0.09,1.171a6.086,6.086,0,0,0-3.439.306c-1.963.828-1.855,2.845-.144,3.691a3.673,3.673,0,0,0,5.042-1.639,8.3,8.3,0,0,1,1.314.973c1.134,1.044,2.3-.595,1.1-1.585a8.374,8.374,0,0,0-2.233-1.278c-0.036-.648-0.09-1.3-0.144-1.783-0.054-.522-0.09-1.08-0.126-1.692,0.522-.126,1.1-0.288,1.729-0.468,1.6-.451.918-2.107-0.414-1.675-0.486.162-.936,0.288-1.368,0.414-0.018-.666-0.018-1.332-0.018-2,0.414-.072.864-0.162,1.35-0.234,1.567-.253,1.08-1.927-0.108-1.657-0.432.09-.846,0.2-1.224,0.27,0.018-.72.054-1.44,0.108-2.088a0.918,0.918,0,0,0-1.837.018c-0.018.576-.018,1.422,0,2.376a10.359,10.359,0,0,1-2.791.126c-1.638-.2-1.566,1.675-0.18,1.711a16.2,16.2,0,0,0,2.827-.216Zm0.216,8.066A1.99,1.99,0,0,1,5.986,177.8a0.544,0.544,0,0,1,.054-1.026A3.922,3.922,0,0,1,8.758,176.789ZM4.815,198.6a28.236,28.236,0,0,0,.018,3.331,0.92,0.92,0,1,0,1.819-.144,26.447,26.447,0,0,1-.144-5.348A21.742,21.742,0,0,1,9.083,194.1c2.521-2.088,2.791-1.116,2.737.162-0.054,1.081-.378,3.025-0.468,3.98-0.414,3.979,2.809,4.267,5.1,1.764a0.88,0.88,0,1,0-1.3-1.188c-1.206,1.278-2.269,1.494-2.089-.558,0.09-1.027.378-2.935,0.45-4.016,0.234-3.583-2.377-3.745-5.168-1.458-0.2.162-.414,0.36-0.63,0.558a0.878,0.878,0,0,0-.81-1.314c0.126-1.045.252-1.945,0.378-2.593a0.833,0.833,0,0,0-1.656-.18c-0.09.792-.234,2-0.36,3.349-0.846.324-1.711,0.684-2.359,0.99a0.832,0.832,0,1,0,.828,1.423,6.674,6.674,0,0,1,1.368-.649c-0.036.361-.054,0.7-0.09,1.063a35.356,35.356,0,0,1-2.683,4.015,1.471,1.471,0,0,0-.144.162c-0.99,1.17.828,2.269,1.638,0.846C4.113,199.933,4.437,199.249,4.815,198.6Zm7.544,27.615c1.909,0.018,1.8-2.106-.09-2.034-4.033.144-5.24-3.637-3.655-6.284a5.19,5.19,0,0,1,2.3-2.107,7.741,7.741,0,0,1,2.683-.5c1.26,0.072,1.656-.288,1.765-0.594a1.062,1.062,0,0,0-1.224-1.387,24.256,24.256,0,0,0-4.915,1.063c-1.837.522-3.4,0.882-4.285,1.1-0.576.144-1.62,0.342-2,.432a1.029,1.029,0,1,0,.612,1.945c0.54-.144,1.044-0.324,1.62-0.54,1.224-.469.918-0.469,2.269-0.9,0.342-.108.432-0.126,0.144,0.252a6.28,6.28,0,0,0-.576.937C5.049,221.211,6.922,226.2,12.36,226.216Zm3.493,17.857a6.907,6.907,0,0,0-2.7-4.177c-1.08-.81-2.053.522-1.188,1.116a5.682,5.682,0,0,1,2,3.493A0.97,0.97,0,1,0,15.853,244.073Zm-7.868,2.971a8.209,8.209,0,0,0,.7-1.387,0.885,0.885,0,0,0-1.638-.648,7.086,7.086,0,0,1-.594,1.063c-0.4.54-.63,0.486-1.1,0.036-1.008-.973-1.35-2.755-1.422-4.646-0.036-.828.036-0.864,0-1.566a0.918,0.918,0,1,0-1.837.018,17.924,17.924,0,0,0,.09,2,9.289,9.289,0,0,0,2.035,5.762C5.229,248.754,6.832,248.916,7.984,247.044Zm3.475,25.579c-0.882-1.927-2.413-3.619-4.213-5.87-0.594-.738-0.558-1.278.216-2.053,1.116-1.116,3.025-2.682,3.925-3.781a1.008,1.008,0,1,0-1.6-1.224,44.237,44.237,0,0,1-3.691,4.069c-1.4,1.459-1.4,2.737-.216,4.123a33.215,33.215,0,0,1,3.817,5.852C10.271,274.891,12.018,273.829,11.459,272.623ZM9.587,307.211a0.906,0.906,0,0,1-.954.919,0.881,0.881,0,0,1-.936-0.919V284.834a0.867,0.867,0,0,1,.918-0.918,0.922,0.922,0,0,1,.972.918v22.377Z" transform="translate(-0.719 -0.656)"/>
</svg>
