<svg xmlns="http://www.w3.org/2000/svg" width="19.938" height="19.97" viewBox="0 0 19.938 19.97">
  <defs>
    <style>
      .cls-1 {
        fill: #fff;
        fill-rule: evenodd;
      }
    </style>
  </defs>
  <path id="face" class="cls-1" d="M552.927,1864.18a9.968,9.968,0,1,0-11.525,9.83v-6.96H538.87v-2.87H541.4v-2.2a3.512,3.512,0,0,1,3.132-3.85,2.681,2.681,0,0,1,.633-0.01,15.151,15.151,0,0,1,2.231.19v2.45h-1.257a1.443,1.443,0,0,0-1.628,1.55v1.87h2.771l-0.443,2.87h-2.322v6.96A9.965,9.965,0,0,0,552.927,1864.18Z" transform="translate(-533 -1854.03)"/>
</svg>
