<svg xmlns="http://www.w3.org/2000/svg" width="33.69" height="26.18" viewBox="0 0 33.69 26.18">
  <defs>
    <style>
      .cls-1 {
        fill: #ec595c;
        fill-rule: evenodd;
      }
    </style>
  </defs>
  <path id="Top" class="cls-1" d="M1051.99,5472l-6.87,10.47,2.86,2.07,0.34-.53a3.7,3.7,0,0,1-1.12-1.05,1.818,1.818,0,0,1-.31-0.98,1.971,1.971,0,0,1,.24-0.95,10.67,10.67,0,0,1,.56-0.95c0.19-.3.35-0.53,0.49-0.71a2.14,2.14,0,0,1,.34-0.37,0.342,0.342,0,0,1,.25-0.11,0.426,0.426,0,0,1,.23.08l7.01,4.6a5.047,5.047,0,0,1,.7.54,1.189,1.189,0,0,1,.34.59,1.561,1.561,0,0,1-.07.75,5.5,5.5,0,0,1-.52,1.03l0.53,0.35,3.68-5.6-0.54-.35a4.657,4.657,0,0,1-.73.87,1.4,1.4,0,0,1-.66.36,1.185,1.185,0,0,1-.66-0.08,5.279,5.279,0,0,1-.78-0.43l-7.01-4.6a0.39,0.39,0,0,1-.16-0.18,0.4,0.4,0,0,1,.02-0.3,2.382,2.382,0,0,1,.25-0.53c0.12-.22.3-0.5,0.52-0.85a4.755,4.755,0,0,1,.72-0.87,1.8,1.8,0,0,1,.81-0.44,1.926,1.926,0,0,1,.98.02,4.624,4.624,0,0,1,1.22.52l0.37-.58Zm7.89-2.03a4.576,4.576,0,0,0-.54,1.65,3.934,3.934,0,0,0,.13,1.7,4.127,4.127,0,0,0,.85,1.56,4.461,4.461,0,0,0,1.45,1.13,4.254,4.254,0,0,0,1.69.42,4.709,4.709,0,0,0,1.73-.27,4.911,4.911,0,0,0,1.57-.92,4.976,4.976,0,0,0,1.16-1.44,4.723,4.723,0,0,0,.54-1.68,4.473,4.473,0,0,0-.14-1.74,4.22,4.22,0,0,0-.88-1.6,3.843,3.843,0,0,0-1.42-1.07,4.19,4.19,0,0,0-1.66-.38,4.744,4.744,0,0,0-1.73.3,4.892,4.892,0,0,0-1.6.93A5.165,5.165,0,0,0,1059.88,5469.97Zm2.61-1.11a2.217,2.217,0,0,1,.98.08,4.147,4.147,0,0,1,1.05.53,5.666,5.666,0,0,1,1.02.96,5.927,5.927,0,0,1,.81,1.18,3.865,3.865,0,0,1,.37,1.12,2.16,2.16,0,0,1-.07.99,1.721,1.721,0,0,1-1.36,1.17,2.278,2.278,0,0,1-.96-0.09,3.755,3.755,0,0,1-1.04-.55,6.817,6.817,0,0,1-1.05-.99,6.538,6.538,0,0,1-.8-1.16,3.854,3.854,0,0,1-.37-1.1,2.275,2.275,0,0,1,.06-0.98,1.766,1.766,0,0,1,.51-0.76A1.718,1.718,0,0,1,1062.49,5468.86Zm7.6-6.48-2.7,1.8,0.27,0.56a2.214,2.214,0,0,1,.92-0.28,0.691,0.691,0,0,1,.55.3q0.15,0.225.48,0.81c0.21,0.39.42,0.8,0.64,1.24l2.59,5.36a6.272,6.272,0,0,1,.36.87,1.3,1.3,0,0,1,.06.6,0.747,0.747,0,0,1-.26.44,2.844,2.844,0,0,1-.59.4l0.3,0.6,4.96-2.41-0.29-.6a5.738,5.738,0,0,1-.94.35,1.093,1.093,0,0,1-.65-0.01,1.027,1.027,0,0,1-.51-0.41,7.078,7.078,0,0,1-.5-0.89l-0.97-2,0.06-.03a2.831,2.831,0,0,0,2.59-.08,4.216,4.216,0,0,0,1.37-1.04,3.844,3.844,0,0,0,.81-1.41,4.2,4.2,0,0,0,.17-1.63,5.014,5.014,0,0,0-1.54-3.17,3.869,3.869,0,0,0-1.39-.87,3.968,3.968,0,0,0-1.61-.24,4.39,4.39,0,0,0-1.68.45,3.455,3.455,0,0,0-1.95,2.28l-0.06.03Zm6.08,1.9a5.132,5.132,0,0,1,.66,2.46,1.542,1.542,0,0,1-.95,1.36,1.959,1.959,0,0,1-1.92-.04,3.312,3.312,0,0,1-1.35-1.5l-0.47-.98a4.4,4.4,0,0,1-.39-1.14,2.487,2.487,0,0,1-.03-1.01,1.9,1.9,0,0,1,.4-0.85,2.36,2.36,0,0,1,.78-0.63c1.16-.56,2.24.22,3.27,2.33h0Z" transform="translate(-1045.12 -5460.66)"/>
</svg>
